<svg width="25" height="25" viewBox="0 0 25 25" fill="none" xmlns="http://www.w3.org/2000/svg">
<path d="M20.3125 3.125H17.9688V2.34375C17.9688 2.13655 17.8864 1.93784 17.7399 1.79132C17.5934 1.64481 17.3947 1.5625 17.1875 1.5625C16.9803 1.5625 16.7816 1.64481 16.6351 1.79132C16.4886 1.93784 16.4062 2.13655 16.4062 2.34375V3.125H8.59375V2.34375C8.59375 2.13655 8.51144 1.93784 8.36493 1.79132C8.21841 1.64481 8.0197 1.5625 7.8125 1.5625C7.6053 1.5625 7.40659 1.64481 7.26007 1.79132C7.11356 1.93784 7.03125 2.13655 7.03125 2.34375V3.125H4.6875C4.2731 3.125 3.87567 3.28962 3.58265 3.58265C3.28962 3.87567 3.125 4.2731 3.125 4.6875V20.3125C3.125 20.7269 3.28962 21.1243 3.58265 21.4174C3.87567 21.7104 4.2731 21.875 4.6875 21.875H20.3125C20.7269 21.875 21.1243 21.7104 21.4174 21.4174C21.7104 21.1243 21.875 20.7269 21.875 20.3125V4.6875C21.875 4.2731 21.7104 3.87567 21.4174 3.58265C21.1243 3.28962 20.7269 3.125 20.3125 3.125ZM7.03125 4.6875V5.46875C7.03125 5.67595 7.11356 5.87466 7.26007 6.02118C7.40659 6.16769 7.6053 6.25 7.8125 6.25C8.0197 6.25 8.21841 6.16769 8.36493 6.02118C8.51144 5.87466 8.59375 5.67595 8.59375 5.46875V4.6875H16.4062V5.46875C16.4062 5.67595 16.4886 5.87466 16.6351 6.02118C16.7816 6.16769 16.9803 6.25 17.1875 6.25C17.3947 6.25 17.5934 6.16769 17.7399 6.02118C17.8864 5.87466 17.9688 5.67595 17.9688 5.46875V4.6875H20.3125V7.8125H4.6875V4.6875H7.03125ZM20.3125 20.3125H4.6875V9.375H20.3125V20.3125ZM10.9375 11.7188V17.9688C10.9375 18.176 10.8552 18.3747 10.7087 18.5212C10.5622 18.6677 10.3635 18.75 10.1562 18.75C9.94905 18.75 9.75034 18.6677 9.60382 18.5212C9.45731 18.3747 9.375 18.176 9.375 17.9688V12.9824L8.94336 13.1992C8.75792 13.2919 8.54323 13.3072 8.34654 13.2416C8.14985 13.1761 7.98725 13.0351 7.89453 12.8496C7.80181 12.6642 7.78655 12.4495 7.85212 12.2528C7.91768 12.0561 8.0587 11.8935 8.24414 11.8008L9.80664 11.0195C9.92579 10.9599 10.0582 10.9317 10.1913 10.9377C10.3244 10.9437 10.4538 10.9836 10.5671 11.0537C10.6804 11.1238 10.774 11.2217 10.8388 11.3381C10.9036 11.4545 10.9376 11.5855 10.9375 11.7188ZM16.7148 14.6924L14.8438 17.1875H16.4062C16.6135 17.1875 16.8122 17.2698 16.9587 17.4163C17.1052 17.5628 17.1875 17.7615 17.1875 17.9688C17.1875 18.176 17.1052 18.3747 16.9587 18.5212C16.8122 18.6677 16.6135 18.75 16.4062 18.75H13.2812C13.1362 18.75 12.9939 18.7096 12.8705 18.6333C12.7471 18.557 12.6474 18.4479 12.5825 18.3181C12.5176 18.1884 12.4901 18.0431 12.5032 17.8986C12.5162 17.7541 12.5692 17.6161 12.6563 17.5L15.4668 13.7529C15.5307 13.6678 15.5766 13.5706 15.6016 13.4671C15.6266 13.3636 15.6301 13.2561 15.6121 13.1512C15.594 13.0463 15.5547 12.9462 15.4966 12.8571C15.4385 12.7679 15.3627 12.6915 15.274 12.6327C15.1853 12.5739 15.0855 12.5338 14.9808 12.5149C14.876 12.496 14.7685 12.4987 14.6649 12.5228C14.5612 12.547 14.4636 12.5921 14.378 12.6553C14.2923 12.7186 14.2205 12.7986 14.167 12.8906C14.1172 12.9823 14.0496 13.0631 13.9681 13.1282C13.8865 13.1933 13.7928 13.2415 13.6924 13.2698C13.592 13.2981 13.4869 13.306 13.3834 13.293C13.2799 13.2801 13.18 13.2465 13.0897 13.1943C12.9993 13.1421 12.9204 13.0724 12.8574 12.9892C12.7945 12.906 12.7488 12.811 12.7232 12.7099C12.6975 12.6088 12.6924 12.5035 12.7081 12.4004C12.7237 12.2973 12.7599 12.1983 12.8145 12.1094C13.0725 11.6628 13.4707 11.3138 13.9473 11.1165C14.4239 10.9192 14.9522 10.8846 15.4504 11.0182C15.9486 11.1517 16.3889 11.4458 16.703 11.855C17.017 12.2641 17.1873 12.7655 17.1875 13.2812C17.1892 13.7908 17.0231 14.2867 16.7148 14.6924Z" fill="#515151"/>
</svg>
