<svg width="19" height="21" viewBox="0 0 19 21" fill="none" xmlns="http://www.w3.org/2000/svg">
<path d="M17.3125 2.125H14.9688V1.34375C14.9688 1.13655 14.8864 0.937836 14.7399 0.791323C14.5934 0.64481 14.3947 0.5625 14.1875 0.5625C13.9803 0.5625 13.7816 0.64481 13.6351 0.791323C13.4886 0.937836 13.4062 1.13655 13.4062 1.34375V2.125H5.59375V1.34375C5.59375 1.13655 5.51144 0.937836 5.36493 0.791323C5.21841 0.64481 5.0197 0.5625 4.8125 0.5625C4.6053 0.5625 4.40659 0.64481 4.26007 0.791323C4.11356 0.937836 4.03125 1.13655 4.03125 1.34375V2.125H1.6875C1.2731 2.125 0.875671 2.28962 0.582646 2.58265C0.28962 2.87567 0.125 3.2731 0.125 3.6875V19.3125C0.125 19.7269 0.28962 20.1243 0.582646 20.4174C0.875671 20.7104 1.2731 20.875 1.6875 20.875H17.3125C17.7269 20.875 18.1243 20.7104 18.4174 20.4174C18.7104 20.1243 18.875 19.7269 18.875 19.3125V3.6875C18.875 3.2731 18.7104 2.87567 18.4174 2.58265C18.1243 2.28962 17.7269 2.125 17.3125 2.125ZM4.03125 3.6875V4.46875C4.03125 4.67595 4.11356 4.87466 4.26007 5.02118C4.40659 5.16769 4.6053 5.25 4.8125 5.25C5.0197 5.25 5.21841 5.16769 5.36493 5.02118C5.51144 4.87466 5.59375 4.67595 5.59375 4.46875V3.6875H13.4062V4.46875C13.4062 4.67595 13.4886 4.87466 13.6351 5.02118C13.7816 5.16769 13.9803 5.25 14.1875 5.25C14.3947 5.25 14.5934 5.16769 14.7399 5.02118C14.8864 4.87466 14.9688 4.67595 14.9688 4.46875V3.6875H17.3125V6.8125H1.6875V3.6875H4.03125ZM17.3125 19.3125H1.6875V8.375H17.3125V19.3125ZM7.9375 10.7188V16.9688C7.9375 17.176 7.85519 17.3747 7.70868 17.5212C7.56216 17.6677 7.36345 17.75 7.15625 17.75C6.94905 17.75 6.75034 17.6677 6.60382 17.5212C6.45731 17.3747 6.375 17.176 6.375 16.9688V11.9824L5.94336 12.1992C5.75792 12.2919 5.54323 12.3072 5.34654 12.2416C5.14985 12.1761 4.98725 12.0351 4.89453 11.8496C4.80181 11.6642 4.78655 11.4495 4.85212 11.2528C4.91768 11.0561 5.0587 10.8935 5.24414 10.8008L6.80664 10.0195C6.92579 9.95991 7.05821 9.93175 7.19132 9.93773C7.32442 9.94371 7.45378 9.98363 7.56711 10.0537C7.68043 10.1238 7.77396 10.2217 7.83879 10.3381C7.90361 10.4545 7.9376 10.5855 7.9375 10.7188ZM13.7148 13.6924L11.8438 16.1875H13.4062C13.6135 16.1875 13.8122 16.2698 13.9587 16.4163C14.1052 16.5628 14.1875 16.7615 14.1875 16.9688C14.1875 17.176 14.1052 17.3747 13.9587 17.5212C13.8122 17.6677 13.6135 17.75 13.4062 17.75H10.2812C10.1362 17.75 9.99394 17.7096 9.87052 17.6333C9.7471 17.557 9.64736 17.4479 9.58248 17.3181C9.51759 17.1884 9.49013 17.0431 9.50316 16.8986C9.51619 16.7541 9.5692 16.6161 9.65625 16.5L12.4668 12.7529C12.5307 12.6678 12.5766 12.5706 12.6016 12.4671C12.6266 12.3636 12.6301 12.2561 12.6121 12.1512C12.594 12.0463 12.5547 11.9462 12.4966 11.8571C12.4385 11.7679 12.3627 11.6915 12.274 11.6327C12.1853 11.5739 12.0855 11.5338 11.9808 11.5149C11.876 11.496 11.7685 11.4987 11.6649 11.5228C11.5612 11.547 11.4636 11.5921 11.378 11.6553C11.2923 11.7186 11.2205 11.7986 11.167 11.8906C11.1172 11.9823 11.0496 12.0631 10.9681 12.1282C10.8865 12.1933 10.7928 12.2415 10.6924 12.2698C10.592 12.2981 10.4869 12.306 10.3834 12.293C10.2799 12.2801 10.18 12.2465 10.0897 12.1943C9.99933 12.1421 9.92036 12.0724 9.85741 11.9892C9.79447 11.906 9.74882 11.811 9.72317 11.7099C9.69752 11.6088 9.69238 11.5035 9.70806 11.4004C9.72373 11.2973 9.75991 11.1983 9.81445 11.1094C10.0725 10.6628 10.4707 10.3138 10.9473 10.1165C11.4239 9.91921 11.9522 9.88465 12.4504 10.0182C12.9486 10.1517 13.3889 10.4458 13.703 10.855C14.017 11.2641 14.1873 11.7655 14.1875 12.2812C14.1892 12.7908 14.0231 13.2867 13.7148 13.6924Z" fill="#02B362"/>
</svg>
