<svg width="25" height="25" viewBox="0 0 25 25" fill="none" xmlns="http://www.w3.org/2000/svg">
<path d="M16.4062 12.5C16.4062 13.2726 16.1772 14.0278 15.7479 14.6702C15.3187 15.3126 14.7086 15.8132 13.9949 16.1089C13.2811 16.4046 12.4957 16.4819 11.7379 16.3312C10.9802 16.1805 10.2842 15.8084 9.73786 15.2621C9.19157 14.7158 8.81953 14.0198 8.66881 13.2621C8.51808 12.5043 8.59544 11.7189 8.8911 11.0051C9.18675 10.2914 9.68742 9.6813 10.3298 9.25207C10.9722 8.82285 11.7274 8.59375 12.5 8.59375C13.536 8.59375 14.5296 9.0053 15.2621 9.73786C15.9947 10.4704 16.4062 11.464 16.4062 12.5ZM24.2188 6.25V18.75C24.2188 18.9572 24.1364 19.1559 23.9899 19.3024C23.8434 19.4489 23.6447 19.5312 23.4375 19.5312H1.5625C1.3553 19.5312 1.15659 19.4489 1.01007 19.3024C0.86356 19.1559 0.78125 18.9572 0.78125 18.75V6.25C0.78125 6.0428 0.86356 5.84409 1.01007 5.69757C1.15659 5.55106 1.3553 5.46875 1.5625 5.46875H23.4375C23.6447 5.46875 23.8434 5.55106 23.9899 5.69757C24.1364 5.84409 24.2188 6.0428 24.2188 6.25ZM22.6562 10.7764C21.7691 10.5141 20.9618 10.034 20.3076 9.37987C19.6535 8.72574 19.1734 7.91836 18.9111 7.03125H6.08887C5.82657 7.91836 5.34649 8.72574 4.69237 9.37987C4.03824 10.034 3.23086 10.5141 2.34375 10.7764V14.2236C3.23086 14.4859 4.03824 14.966 4.69237 15.6201C5.34649 16.2743 5.82657 17.0816 6.08887 17.9688H18.9111C19.1734 17.0816 19.6535 16.2743 20.3076 15.6201C20.9618 14.966 21.7691 14.4859 22.6562 14.2236V10.7764Z" fill="#515151"/>
</svg>
