<svg width="23" height="23" viewBox="0 0 23 23" fill="none" xmlns="http://www.w3.org/2000/svg">
<path d="M14.1545 11.8833C14.2983 11.9504 14.4612 11.9792 14.6145 11.9792C14.9307 11.9792 15.2278 11.8546 15.4578 11.6342L17.547 9.58332H18.4478C19.9045 9.58332 21.0833 8.40457 21.0833 6.94791V4.55207C21.0833 3.09541 19.9045 1.91666 18.4478 1.91666H14.1353C12.6787 1.91666 11.4999 3.09541 11.4999 4.55207V6.94791C11.4999 8.15541 12.3145 9.17124 13.4166 9.48749V10.7812C13.4166 11.2604 13.7137 11.6917 14.1545 11.8833ZM7.66658 12.9375C5.817 12.9375 4.31242 11.4329 4.31242 9.58332C4.31242 7.73374 5.817 6.22916 7.66658 6.22916C9.51617 6.22916 11.0208 7.73374 11.0208 9.58332C11.0208 11.4329 9.51617 12.9375 7.66658 12.9375ZM7.66658 21.0833C5.69242 21.0833 4.17825 20.5467 3.16242 19.4829C1.88208 18.1374 1.91371 16.4412 1.91658 16.2658V16.2533C1.91658 15.2279 2.77908 14.375 3.83325 14.375H11.4999C12.5541 14.375 13.4166 15.2375 13.4166 16.2917L13.4175 16.2974C13.4204 16.4191 13.4607 18.1278 12.1717 19.4829C11.1549 20.5467 9.64075 21.0833 7.66658 21.0833Z" fill="#515151"/>
</svg>
