<svg width="23" height="23" viewBox="0 0 23 23" fill="none" xmlns="http://www.w3.org/2000/svg">
<path d="M17.2497 12.6308V9.58332C17.2483 8.22548 16.7664 6.91194 15.8894 5.87531C15.0124 4.83869 13.7969 4.14588 12.458 3.91957V2.87499C12.458 2.62082 12.357 2.37707 12.1773 2.19735C11.9976 2.01762 11.7538 1.91666 11.4997 1.91666C11.2455 1.91666 11.0018 2.01762 10.822 2.19735C10.6423 2.37707 10.5413 2.62082 10.5413 2.87499V3.91957C9.20249 4.14588 7.98693 4.83869 7.10992 5.87531C6.23291 6.91194 5.75105 8.22548 5.74967 9.58332V12.6308C5.19044 12.8285 4.70605 13.1944 4.36291 13.6782C4.01977 14.162 3.83467 14.7402 3.83301 15.3333V17.25C3.83301 17.5042 3.93397 17.7479 4.1137 17.9276C4.29342 18.1074 4.53718 18.2083 4.79134 18.2083H7.80051C8.0212 19.0204 8.50297 19.7373 9.1715 20.2484C9.84002 20.7595 10.6582 21.0364 11.4997 21.0364C12.3412 21.0364 13.1593 20.7595 13.8279 20.2484C14.4964 19.7373 14.9782 19.0204 15.1988 18.2083H18.208C18.4622 18.2083 18.7059 18.1074 18.8857 17.9276C19.0654 17.7479 19.1663 17.5042 19.1663 17.25V15.3333C19.1647 14.7402 18.9796 14.162 18.6364 13.6782C18.2933 13.1944 17.8089 12.8285 17.2497 12.6308ZM7.66634 9.58332C7.66634 8.56666 8.07021 7.59164 8.7891 6.87275C9.50799 6.15386 10.483 5.74999 11.4997 5.74999C12.5163 5.74999 13.4914 6.15386 14.2103 6.87275C14.9291 7.59164 15.333 8.56666 15.333 9.58332V12.4583H7.66634V9.58332ZM11.4997 19.1667C11.1652 19.1646 10.8371 19.0751 10.5479 18.907C10.2587 18.7389 10.0186 18.498 9.85134 18.2083H13.148C12.9808 18.498 12.7406 18.7389 12.4515 18.907C12.1623 19.0751 11.8342 19.1646 11.4997 19.1667ZM17.2497 16.2917H5.74967V15.3333C5.74967 15.0792 5.85064 14.8354 6.03036 14.6557C6.21009 14.476 6.45384 14.375 6.70801 14.375H16.2913C16.5455 14.375 16.7893 14.476 16.969 14.6557C17.1487 14.8354 17.2497 15.0792 17.2497 15.3333V16.2917Z" fill="#515151"/>
</svg>
