<svg width="35" height="35" viewBox="0 0 35 35" fill="none" xmlns="http://www.w3.org/2000/svg">
<path d="M25.457 26.9167C23.792 26.9167 22.457 28.2517 22.457 29.9167C22.457 30.7123 22.7731 31.4754 23.3357 32.038C23.8983 32.6006 24.6614 32.9167 25.457 32.9167C26.2527 32.9167 27.0157 32.6006 27.5784 32.038C28.141 31.4754 28.457 30.7123 28.457 29.9167C28.457 29.121 28.141 28.358 27.5784 27.7954C27.0157 27.2327 26.2527 26.9167 25.457 26.9167ZM1.45703 2.91667V5.91667H4.45703L9.85703 17.3017L7.81703 20.9767C7.59203 21.3967 7.45703 21.8917 7.45703 22.4167C7.45703 23.2123 7.7731 23.9754 8.33571 24.538C8.89832 25.1006 9.66138 25.4167 10.457 25.4167H28.457V22.4167H11.087C10.9876 22.4167 10.8922 22.3772 10.8219 22.3068C10.7515 22.2365 10.712 22.1411 10.712 22.0417C10.712 21.9667 10.727 21.9067 10.757 21.8617L12.107 19.4167H23.282C24.407 19.4167 25.397 18.7867 25.907 17.8717L31.277 8.16667C31.382 7.92667 31.457 7.67167 31.457 7.41667C31.457 7.01885 31.299 6.63732 31.0177 6.35601C30.7364 6.07471 30.3549 5.91667 29.957 5.91667H7.77203L6.36203 2.91667M10.457 26.9167C8.79203 26.9167 7.45703 28.2517 7.45703 29.9167C7.45703 30.7123 7.7731 31.4754 8.33571 32.038C8.89832 32.6006 9.66138 32.9167 10.457 32.9167C11.2527 32.9167 12.0157 32.6006 12.5784 32.038C13.141 31.4754 13.457 30.7123 13.457 29.9167C13.457 29.121 13.141 28.358 12.5784 27.7954C12.0157 27.2327 11.2527 26.9167 10.457 26.9167Z" fill="black"/>
</svg>
