<svg width="25" height="25" viewBox="0 0 25 25" fill="none" xmlns="http://www.w3.org/2000/svg">
<path d="M18.2671 1.62189C18.41 1.68094 18.5321 1.78106 18.6181 1.90956C18.704 2.03806 18.7499 2.18917 18.7499 2.34376V6.25001H22.6562C22.8109 6.24974 22.9622 6.29541 23.0909 6.38123C23.2197 6.46706 23.32 6.58918 23.3793 6.7321C23.4385 6.87503 23.454 7.03233 23.4237 7.18406C23.3935 7.33579 23.3188 7.47513 23.2093 7.58439L20.0843 10.7094C20.0116 10.7819 19.9253 10.8394 19.8304 10.8785C19.7355 10.9176 19.6338 10.9377 19.5312 10.9375H15.1671L14.0108 12.0953C14.073 12.327 14.0809 12.5698 14.0341 12.8051C13.9873 13.0403 13.8869 13.2616 13.7408 13.4518C13.5947 13.642 13.4068 13.796 13.1916 13.9019C12.9764 14.0078 12.7398 14.0628 12.4999 14.0625C12.0855 14.0625 11.6881 13.8979 11.3951 13.6049C11.102 13.3118 10.9374 12.9144 10.9374 12.5L10.939 12.4281C10.9497 12.1947 11.0126 11.9667 11.1231 11.7608C11.2336 11.555 11.3889 11.3765 11.5775 11.2386C11.7661 11.1007 11.9832 11.0068 12.2129 10.9639C12.4425 10.921 12.6789 10.9301 12.9046 10.9906L14.0624 9.83283V5.46876C14.0622 5.3661 14.0823 5.26441 14.1214 5.1695C14.1606 5.07459 14.218 4.98833 14.2905 4.91564L17.4155 1.79064C17.5249 1.68145 17.6641 1.60713 17.8157 1.5771C17.9673 1.54706 18.1244 1.56265 18.2671 1.62189ZM19.2077 9.37502L20.7702 7.81251H17.9687C17.7615 7.81251 17.5627 7.7302 17.4162 7.58369C17.2697 7.43718 17.1874 7.23847 17.1874 7.03126V4.2297L15.6249 5.7922V9.37502H19.2077ZM21.789 11.2125C21.8473 11.6344 21.8765 12.0641 21.8765 12.5016C21.876 14.4106 21.2927 16.2739 20.2047 17.8425C19.1166 19.4111 17.5756 20.6101 15.7878 21.2793C13.9999 21.9484 12.0503 22.0559 10.1998 21.5872C8.34921 21.1185 6.68582 20.096 5.43201 18.6565C4.17821 17.217 3.39374 15.429 3.1835 13.5316C2.97326 11.6342 3.34726 9.71787 4.2555 8.03878C5.16375 6.35968 6.56294 4.99787 8.26601 4.13542C9.96908 3.27297 11.8949 2.95098 13.7858 3.21251L13.1874 3.81095C12.9397 4.05865 12.7507 4.35871 12.6343 4.68908L12.4999 4.68751C10.9491 4.68774 9.43339 5.14953 8.14588 6.01407C6.85837 6.87861 5.85729 8.10678 5.27014 9.54217C4.68298 10.9776 4.53632 12.5552 4.84882 14.0743C5.16132 15.5933 5.91884 16.9849 7.02492 18.072C8.131 19.1591 9.53559 19.8923 11.0598 20.1784C12.584 20.4645 14.1589 20.2905 15.5839 19.6785C17.0089 19.0666 18.2195 18.0443 19.0616 16.742C19.9037 15.4397 20.3391 13.9163 20.3124 12.3656C20.6415 12.2492 20.9405 12.0608 21.1874 11.8141L21.789 11.2125ZM12.4999 7.03126C11.4183 7.03126 10.361 7.352 9.46164 7.95292C8.5623 8.55383 7.86136 9.40793 7.44744 10.4072C7.03353 11.4065 6.92523 12.5061 7.13624 13.5669C7.34725 14.6277 7.8681 15.6022 8.63292 16.367C9.39774 17.1318 10.3722 17.6527 11.433 17.8637C12.4938 18.0747 13.5934 17.9664 14.5927 17.5525C15.592 17.1386 16.4461 16.4376 17.047 15.5383C17.6479 14.639 17.9687 13.5816 17.9687 12.5H16.4062C16.4062 13.2726 16.1771 14.0278 15.7478 14.6702C15.3186 15.3126 14.7085 15.8133 13.9948 16.1089C13.281 16.4046 12.4956 16.4819 11.7378 16.3312C10.9801 16.1805 10.2841 15.8084 9.73777 15.2622C9.19148 14.7159 8.81944 14.0198 8.66872 13.2621C8.51799 12.5043 8.59535 11.7189 8.89101 11.0052C9.18666 10.2914 9.68733 9.68131 10.3297 9.25209C10.9721 8.82286 11.7273 8.59376 12.4999 8.59376V7.03126Z" fill="#515151"/>
</svg>
