<svg width="28" height="28" viewBox="0 0 28 28" fill="none" xmlns="http://www.w3.org/2000/svg">
<path d="M3.5 14C3.5 15.3789 3.77159 16.7443 4.29926 18.0182C4.82694 19.2921 5.60036 20.4496 6.57538 21.4246C7.55039 22.3996 8.70791 23.1731 9.98182 23.7007C11.2557 24.2284 12.6211 24.5 14 24.5C15.3789 24.5 16.7443 24.2284 18.0182 23.7007C19.2921 23.1731 20.4496 22.3996 21.4246 21.4246C22.3996 20.4496 23.1731 19.2921 23.7007 18.0182C24.2284 16.7443 24.5 15.3789 24.5 14C24.5 12.6211 24.2284 11.2557 23.7007 9.98182C23.1731 8.70791 22.3996 7.55039 21.4246 6.57538C20.4496 5.60036 19.2921 4.82694 18.0182 4.29927C16.7443 3.77159 15.3789 3.5 14 3.5C12.6211 3.5 11.2557 3.77159 9.98182 4.29927C8.70791 4.82694 7.55039 5.60036 6.57538 6.57538C5.60036 7.55039 4.82694 8.70791 4.29926 9.98182C3.77159 11.2557 3.5 12.6211 3.5 14Z" stroke="black" stroke-width="2" stroke-linecap="round" stroke-linejoin="round"/>
<path d="M17.2667 10.5C17.0553 10.1334 16.7483 9.83116 16.3783 9.62565C16.0084 9.42014 15.5896 9.3191 15.1667 9.33334H12.8333C12.2145 9.33334 11.621 9.57917 11.1834 10.0168C10.7458 10.4543 10.5 11.0478 10.5 11.6667C10.5 12.2855 10.7458 12.879 11.1834 13.3166C11.621 13.7542 12.2145 14 12.8333 14H15.1667C15.7855 14 16.379 14.2458 16.8166 14.6834C17.2542 15.121 17.5 15.7145 17.5 16.3333C17.5 16.9522 17.2542 17.5457 16.8166 17.9833C16.379 18.4208 15.7855 18.6667 15.1667 18.6667H12.8333C12.4104 18.6809 11.9916 18.5799 11.6217 18.3744C11.2517 18.1689 10.9447 17.8666 10.7333 17.5M14 8.16667V19.8333" stroke="black" stroke-width="2" stroke-linecap="round" stroke-linejoin="round"/>
</svg>
