<svg width="18" height="18" viewBox="0 0 18 18" fill="none" xmlns="http://www.w3.org/2000/svg">
<path d="M9 14.25C9.6213 14.25 10.125 14.7537 10.125 15.375C10.125 15.9963 9.6213 16.5 9 16.5C8.3787 16.5 7.875 15.9963 7.875 15.375C7.875 14.7537 8.3787 14.25 9 14.25ZM9 1.5C11.4853 1.5 13.5 3.51472 13.5 6C13.5 7.62345 12.9355 8.46802 11.4944 9.69232C10.049 10.9203 9.75 11.4727 9.75 12.75H8.25C8.25 10.8945 8.84025 9.9789 10.5233 8.54917C11.6609 7.58265 12 7.0753 12 6C12 4.34314 10.6568 3 9 3C7.34314 3 6 4.34314 6 6V6.75H4.5V6C4.5 3.51472 6.51472 1.5 9 1.5Z" fill="#727272"/>
</svg>
