<svg width="23" height="23" viewBox="0 0 23 23" fill="none" xmlns="http://www.w3.org/2000/svg">
<path d="M8.62533 13.1771C6.38283 13.1771 1.91699 14.2984 1.91699 16.5313V18.2084H15.3337V16.5313C15.3337 14.2984 10.8678 13.1771 8.62533 13.1771ZM4.15949 16.2917C4.96449 15.7359 6.90991 15.0938 8.62533 15.0938C10.3407 15.0938 12.2862 15.7359 13.0912 16.2917H4.15949ZM8.62533 11.5C10.4749 11.5 11.9795 9.99544 11.9795 8.14585C11.9795 6.29627 10.4749 4.79169 8.62533 4.79169C6.77574 4.79169 5.27116 6.29627 5.27116 8.14585C5.27116 9.99544 6.77574 11.5 8.62533 11.5ZM8.62533 6.70835C9.42074 6.70835 10.0628 7.35044 10.0628 8.14585C10.0628 8.94127 9.42074 9.58335 8.62533 9.58335C7.82991 9.58335 7.18783 8.94127 7.18783 8.14585C7.18783 7.35044 7.82991 6.70835 8.62533 6.70835ZM15.372 13.2346C16.4837 14.0396 17.2503 15.1129 17.2503 16.5313V18.2084H21.0837V16.5313C21.0837 14.5954 17.7295 13.4934 15.372 13.2346ZM14.3753 11.5C16.2249 11.5 17.7295 9.99544 17.7295 8.14585C17.7295 6.29627 16.2249 4.79169 14.3753 4.79169C13.8578 4.79169 13.3787 4.91627 12.9378 5.1271C13.5416 5.98002 13.8962 7.0246 13.8962 8.14585C13.8962 9.2671 13.5416 10.3117 12.9378 11.1646C13.3787 11.3754 13.8578 11.5 14.3753 11.5Z" fill="#515151"/>
</svg>
