<svg width="115" height="116" viewBox="0 0 115 116" fill="none" xmlns="http://www.w3.org/2000/svg">
<mask id="path-1-inside-1_381_54" fill="white">
<path d="M105.22 75.3119C105.836 75.5486 106.529 75.2418 106.752 74.6211C110.917 63.0447 111.085 50.3928 107.206 38.6929C103.202 26.6148 95.1338 16.2987 84.3763 9.50231C73.6188 2.70596 60.8376 -0.150128 48.2103 1.42069C35.5831 2.99152 23.8912 8.89206 15.1268 18.1169C6.36233 27.3418 1.06763 39.3203 0.144825 52.0113C-0.777982 64.7023 2.7282 77.3207 10.066 87.7164C17.4037 98.1122 28.1191 105.642 40.3862 109.023C52.2692 112.298 64.896 111.484 76.2442 106.732C76.8526 106.477 77.1236 105.77 76.8557 105.167C76.5877 104.564 75.8823 104.294 75.2735 104.548C64.4307 109.076 52.3711 109.848 41.021 106.72C29.2866 103.486 19.0367 96.2831 12.0176 86.3389C4.99858 76.3947 1.64468 64.3244 2.52741 52.1845C3.41013 40.0447 8.47487 28.5866 16.8586 19.7624C25.2424 10.9381 36.4265 5.29389 48.5052 3.7913C60.584 2.2887 72.8101 5.02074 83.1003 11.5219C93.3906 18.0231 101.108 27.8911 104.938 39.4446C108.643 50.6198 108.489 62.7032 104.522 73.7635C104.299 74.3844 104.605 75.0751 105.22 75.3119Z"/>
</mask>
<path d="M105.22 75.3119C105.836 75.5486 106.529 75.2418 106.752 74.6211C110.917 63.0447 111.085 50.3928 107.206 38.6929C103.202 26.6148 95.1338 16.2987 84.3763 9.50231C73.6188 2.70596 60.8376 -0.150128 48.2103 1.42069C35.5831 2.99152 23.8912 8.89206 15.1268 18.1169C6.36233 27.3418 1.06763 39.3203 0.144825 52.0113C-0.777982 64.7023 2.7282 77.3207 10.066 87.7164C17.4037 98.1122 28.1191 105.642 40.3862 109.023C52.2692 112.298 64.896 111.484 76.2442 106.732C76.8526 106.477 77.1236 105.77 76.8557 105.167C76.5877 104.564 75.8823 104.294 75.2735 104.548C64.4307 109.076 52.3711 109.848 41.021 106.72C29.2866 103.486 19.0367 96.2831 12.0176 86.3389C4.99858 76.3947 1.64468 64.3244 2.52741 52.1845C3.41013 40.0447 8.47487 28.5866 16.8586 19.7624C25.2424 10.9381 36.4265 5.29389 48.5052 3.7913C60.584 2.2887 72.8101 5.02074 83.1003 11.5219C93.3906 18.0231 101.108 27.8911 104.938 39.4446C108.643 50.6198 108.489 62.7032 104.522 73.7635C104.299 74.3844 104.605 75.0751 105.22 75.3119Z" stroke="#727272" stroke-width="6" mask="url(#path-1-inside-1_381_54)"/>
<path d="M61.5 47.3333H61.5217M56.0833 75.5H42C40.2761 75.5 38.6228 74.8152 37.4038 73.5962C36.1848 72.3772 35.5 70.7239 35.5 69V43C35.5 41.2761 36.1848 39.6228 37.4038 38.4038C38.6228 37.1848 40.2761 36.5 42 36.5H68C69.7239 36.5 71.3772 37.1848 72.5962 38.4038C73.8152 39.6228 74.5 41.2761 74.5 43V57.0833" stroke="black" stroke-width="2" stroke-linecap="round" stroke-linejoin="round"/>
<path d="M35.5 64.6667L46.3333 53.8333C48.344 51.8985 50.8227 51.8985 52.8333 53.8333L60.4167 61.4167" stroke="black" stroke-width="2" stroke-linecap="round" stroke-linejoin="round"/>
<path d="M59.333 60.3333L61.4997 58.1667C62.9708 56.7518 64.6912 56.3705 66.2967 57.027M70.1663 77.6667V64.6667M70.1663 64.6667L76.6663 71.1667M70.1663 64.6667L63.6663 71.1667" stroke="black" stroke-width="2" stroke-linecap="round" stroke-linejoin="round"/>
<path d="M84.1169 86.025V106.882C84.1167 107.477 84.2338 108.067 84.4617 108.617C84.6895 109.168 85.0235 109.668 85.4447 110.089C85.8658 110.51 86.3659 110.844 86.9162 111.072C87.4665 111.3 88.0563 111.417 88.6519 111.417H101.349C102.551 111.417 103.704 110.939 104.554 110.089C105.404 109.239 105.882 108.086 105.882 106.883V86.0233M80.4902 86.025H109.51" stroke="black" stroke-width="1.5" stroke-linecap="round" stroke-linejoin="round"/>
<path d="M89.5586 86.025V83.3033C89.5582 82.9459 89.6283 82.5919 89.7649 82.2615C89.9016 81.9312 90.102 81.6311 90.3549 81.3784C90.6077 81.1258 90.9079 80.9255 91.2383 80.789C91.5687 80.6526 91.9228 80.5827 92.2803 80.5833H97.7203C98.0777 80.5827 98.4318 80.6526 98.7622 80.789C99.0926 80.9255 99.3928 81.1258 99.6457 81.3784C99.8985 81.6311 100.099 81.9312 100.236 82.2615C100.372 82.5919 100.442 82.9459 100.442 83.3033V86.025M91.3736 104.32V95.255M98.6286 104.32V95.255" stroke="black" stroke-width="1.5" stroke-linecap="round" stroke-linejoin="round"/>
</svg>
