<svg width="23" height="23" viewBox="0 0 23 23" fill="none" xmlns="http://www.w3.org/2000/svg">
<path d="M16.2913 8.62499V6.70832C16.2913 5.43749 15.7865 4.21871 14.8879 3.3201C13.9893 2.42149 12.7705 1.91666 11.4997 1.91666C10.2288 1.91666 9.01007 2.42149 8.11145 3.3201C7.21284 4.21871 6.70801 5.43749 6.70801 6.70832V8.62499C5.94551 8.62499 5.21424 8.92789 4.67508 9.46706C4.13591 10.0062 3.83301 10.7375 3.83301 11.5V18.2083C3.83301 18.9708 4.13591 19.7021 4.67508 20.2413C5.21424 20.7804 5.94551 21.0833 6.70801 21.0833H16.2913C17.0538 21.0833 17.7851 20.7804 18.3243 20.2413C18.8634 19.7021 19.1663 18.9708 19.1663 18.2083V11.5C19.1663 10.7375 18.8634 10.0062 18.3243 9.46706C17.7851 8.92789 17.0538 8.62499 16.2913 8.62499ZM8.62467 6.70832C8.62467 5.94583 8.92758 5.21456 9.46674 4.67539C10.0059 4.13622 10.7372 3.83332 11.4997 3.83332C12.2622 3.83332 12.9934 4.13622 13.5326 4.67539C14.0718 5.21456 14.3747 5.94583 14.3747 6.70832V8.62499H8.62467V6.70832ZM17.2497 18.2083C17.2497 18.4625 17.1487 18.7062 16.969 18.886C16.7893 19.0657 16.5455 19.1667 16.2913 19.1667H6.70801C6.45384 19.1667 6.21009 19.0657 6.03036 18.886C5.85064 18.7062 5.74967 18.4625 5.74967 18.2083V11.5C5.74967 11.2458 5.85064 11.0021 6.03036 10.8223C6.21009 10.6426 6.45384 10.5417 6.70801 10.5417H16.2913C16.5455 10.5417 16.7893 10.6426 16.969 10.8223C17.1487 11.0021 17.2497 11.2458 17.2497 11.5V18.2083Z" fill="#515151"/>
</svg>
