<svg width="17" height="9" viewBox="0 0 17 9" fill="none" xmlns="http://www.w3.org/2000/svg">
<path fill-rule="evenodd" clip-rule="evenodd" d="M14.5667 2.91667H1.81673C1.62887 2.91667 1.4487 2.8157 1.31586 2.63598C1.18303 2.45625 1.1084 2.2125 1.1084 1.95833C1.1084 1.70417 1.18303 1.46041 1.31586 1.28069C1.4487 1.10097 1.62887 1 1.81673 1H14.5667C14.7546 1 14.9348 1.10097 15.0676 1.28069C15.2004 1.46041 15.2751 1.70417 15.2751 1.95833C15.2751 2.2125 15.2004 2.45625 15.0676 2.63598C14.9348 2.8157 14.7546 2.91667 14.5667 2.91667ZM1.81673 5.79167H14.5667C14.7546 5.79167 14.9348 5.89263 15.0676 6.07236C15.2004 6.25208 15.2751 6.49583 15.2751 6.75C15.2751 7.00417 15.2004 7.24792 15.0676 7.42764C14.9348 7.60737 14.7546 7.70833 14.5667 7.70833H1.81673C1.62887 7.70833 1.4487 7.60737 1.31586 7.42764C1.18303 7.24792 1.1084 7.00417 1.1084 6.75C1.1084 6.49583 1.18303 6.25208 1.31586 6.07236C1.4487 5.89263 1.62887 5.79167 1.81673 5.79167Z" fill="#515151"/>
</svg>
