<svg width="23" height="23" viewBox="0 0 23 23" fill="none" xmlns="http://www.w3.org/2000/svg">
<path fill-rule="evenodd" clip-rule="evenodd" d="M11.5003 2.63541C9.14929 2.63541 6.89455 3.56935 5.23212 5.23178C3.56969 6.89421 2.63574 9.14896 2.63574 11.5C2.63574 13.851 3.56969 16.1058 5.23212 17.7682C6.89455 19.4306 9.14929 20.3646 11.5003 20.3646C13.8514 20.3646 16.1061 19.4306 17.7685 17.7682C19.431 16.1058 20.3649 13.851 20.3649 11.5C20.3649 9.14896 19.431 6.89421 17.7685 5.23178C16.1061 3.56935 13.8514 2.63541 11.5003 2.63541ZM1.19824 11.5C1.19824 5.81036 5.8107 1.19791 11.5003 1.19791C17.1899 1.19791 21.8024 5.81036 21.8024 11.5C21.8024 17.1896 17.1899 21.8021 11.5003 21.8021C5.8107 21.8021 1.19824 17.1896 1.19824 11.5ZM10.6972 5.98957H12.9378C13.7639 5.98957 14.5561 6.31772 15.1402 6.90181C15.7243 7.48591 16.0524 8.27812 16.0524 9.10416C16.0524 9.93019 15.7243 10.7224 15.1402 11.3065C14.5561 11.8906 13.7639 12.2187 12.9378 12.2187H10.3024V12.6979H11.5003C11.6909 12.6979 11.8738 12.7736 12.0086 12.9084C12.1433 13.0432 12.2191 13.226 12.2191 13.4167C12.2191 13.6073 12.1433 13.7901 12.0086 13.9249C11.8738 14.0597 11.6909 14.1354 11.5003 14.1354H10.3024V16.2917C10.3024 16.4823 10.2267 16.6651 10.0919 16.7999C9.9571 16.9347 9.77428 17.0104 9.58366 17.0104C9.39303 17.0104 9.21022 16.9347 9.07543 16.7999C8.94063 16.6651 8.86491 16.4823 8.86491 16.2917V14.1354H8.62533C8.4347 14.1354 8.25188 14.0597 8.11709 13.9249C7.9823 13.7901 7.90658 13.6073 7.90658 13.4167C7.90658 13.226 7.9823 13.0432 8.11709 12.9084C8.25188 12.7736 8.4347 12.6979 8.62533 12.6979H8.86491V12.2187H8.62533C8.4347 12.2187 8.25188 12.143 8.11709 12.0082C7.9823 11.8734 7.90658 11.6906 7.90658 11.5C7.90658 11.3094 7.9823 11.1265 8.11709 10.9918C8.25188 10.857 8.4347 10.7812 8.62533 10.7812H8.86491V7.82191C8.86491 7.68199 8.86491 7.53728 8.88599 7.40407C8.94149 7.05448 9.10617 6.73142 9.35646 6.48112C9.60675 6.23083 9.92982 6.06615 10.2794 6.01066C10.4126 5.98957 10.5583 5.98957 10.6972 5.98957ZM10.3014 10.7812H12.9369C13.3817 10.7812 13.8082 10.6045 14.1227 10.29C14.4373 9.97552 14.6139 9.54895 14.6139 9.10416C14.6139 8.65937 14.4373 8.23279 14.1227 7.91828C13.8082 7.60377 13.3817 7.42707 12.9369 7.42707H10.7327L10.5027 7.42995C10.4531 7.43791 10.4073 7.46125 10.3717 7.49668C10.3361 7.5321 10.3125 7.57782 10.3043 7.62736L10.3024 7.66857L10.3014 7.85832V10.7812Z" fill="#515151"/>
</svg>
