<svg width="25" height="25" viewBox="0 0 25 25" fill="none" xmlns="http://www.w3.org/2000/svg">
<path d="M12.2396 19.6667L18.125 13.7813L16.6146 12.2708L12.2135 16.6719L10.026 14.4844L8.54167 15.9688L12.2396 19.6667ZM7.08333 23.8333C6.51042 23.8333 6.02014 23.6295 5.6125 23.2219C5.20486 22.8142 5.00069 22.3236 5 21.75V5.08333C5 4.51042 5.20417 4.02014 5.6125 3.6125C6.02083 3.20486 6.51111 3.00069 7.08333 3H15.4167L21.6667 9.25V21.75C21.6667 22.3229 21.4628 22.8135 21.0552 23.2219C20.6476 23.6302 20.1569 23.834 19.5833 23.8333H7.08333ZM14.375 10.2917V5.08333H7.08333V21.75H19.5833V10.2917H14.375Z" fill="#515151"/>
</svg>
