<svg width="23" height="23" viewBox="0 0 23 23" fill="none" xmlns="http://www.w3.org/2000/svg">
<path d="M11.4997 11.5C10.4455 11.5 9.54308 11.1247 8.79238 10.374C8.04169 9.6233 7.66634 8.72087 7.66634 7.66671C7.66634 6.61254 8.04169 5.71011 8.79238 4.95942C9.54308 4.20872 10.4455 3.83337 11.4997 3.83337C12.5538 3.83337 13.4563 4.20872 14.207 4.95942C14.9577 5.71011 15.333 6.61254 15.333 7.66671C15.333 8.72087 14.9577 9.6233 14.207 10.374C13.4563 11.1247 12.5538 11.5 11.4997 11.5ZM3.83301 19.1667V16.4834C3.83301 15.9403 3.97292 15.4413 4.25276 14.9865C4.53259 14.5316 4.90379 14.184 5.36634 13.9438C6.35662 13.4487 7.36287 13.0775 8.38509 12.8302C9.40731 12.583 10.4455 12.459 11.4997 12.4584C12.5538 12.4577 13.592 12.5817 14.6143 12.8302C15.6365 13.0787 16.6427 13.4499 17.633 13.9438C18.0962 14.1834 18.4677 14.5309 18.7475 14.9865C19.0274 15.442 19.167 15.941 19.1663 16.4834V19.1667H3.83301ZM5.74967 17.25H17.2497V16.4834C17.2497 16.3077 17.2059 16.148 17.1184 16.0042C17.0309 15.8605 16.9149 15.7487 16.7705 15.6688C15.908 15.2375 15.0375 14.9143 14.159 14.699C13.2806 14.4837 12.3941 14.3757 11.4997 14.375C10.6052 14.3744 9.71877 14.4824 8.8403 14.699C7.96183 14.9155 7.09134 15.2388 6.22884 15.6688C6.08509 15.7487 5.96913 15.8605 5.88097 16.0042C5.7928 16.148 5.74904 16.3077 5.74967 16.4834V17.25ZM11.4997 9.58337C12.0268 9.58337 12.4781 9.39586 12.8538 9.02083C13.2295 8.6458 13.417 8.19443 13.4163 7.66671C13.4157 7.13899 13.2282 6.68793 12.8538 6.31354C12.4794 5.93915 12.028 5.75132 11.4997 5.75004C10.9713 5.74876 10.5203 5.9366 10.1465 6.31354C9.77276 6.69049 9.58492 7.14154 9.58301 7.66671C9.58109 8.19187 9.76892 8.64325 10.1465 9.02083C10.5241 9.39842 10.9751 9.58593 11.4997 9.58337Z" fill="#515151"/>
</svg>
