<svg width="25" height="25" viewBox="0 0 25 25" fill="none" xmlns="http://www.w3.org/2000/svg">
<path d="M20.3125 3.125H17.9688V2.34375C17.9688 2.13655 17.8864 1.93784 17.7399 1.79132C17.5934 1.64481 17.3947 1.5625 17.1875 1.5625C16.9803 1.5625 16.7816 1.64481 16.6351 1.79132C16.4886 1.93784 16.4062 2.13655 16.4062 2.34375V3.125H8.59375V2.34375C8.59375 2.13655 8.51144 1.93784 8.36493 1.79132C8.21841 1.64481 8.0197 1.5625 7.8125 1.5625C7.6053 1.5625 7.40659 1.64481 7.26007 1.79132C7.11356 1.93784 7.03125 2.13655 7.03125 2.34375V3.125H4.6875C4.2731 3.125 3.87567 3.28962 3.58265 3.58265C3.28962 3.87567 3.125 4.2731 3.125 4.6875V20.3125C3.125 20.7269 3.28962 21.1243 3.58265 21.4174C3.87567 21.7104 4.2731 21.875 4.6875 21.875H20.3125C20.7269 21.875 21.1243 21.7104 21.4174 21.4174C21.7104 21.1243 21.875 20.7269 21.875 20.3125V4.6875C21.875 4.2731 21.7104 3.87567 21.4174 3.58265C21.1243 3.28962 20.7269 3.125 20.3125 3.125ZM20.3125 20.3125H4.6875V4.6875H7.03125V5.46875C7.03125 5.67595 7.11356 5.87466 7.26007 6.02118C7.40659 6.16769 7.6053 6.25 7.8125 6.25C8.0197 6.25 8.21841 6.16769 8.36493 6.02118C8.51144 5.87466 8.59375 5.67595 8.59375 5.46875V4.6875H16.4062V5.46875C16.4062 5.67595 16.4886 5.87466 16.6351 6.02118C16.7816 6.16769 16.9803 6.25 17.1875 6.25C17.3947 6.25 17.5934 6.16769 17.7399 6.02118C17.8864 5.87466 17.9688 5.67595 17.9688 5.46875V4.6875H20.3125V20.3125ZM14.8438 8.59375C14.4001 8.59344 13.9615 8.6879 13.5573 8.8708C13.1531 9.0537 12.7926 9.32082 12.5 9.6543C12.0803 9.17839 11.5257 8.84153 10.9098 8.68851C10.294 8.5355 9.64623 8.57357 9.05258 8.79767C8.45894 9.02177 7.94758 9.42128 7.58651 9.94308C7.22544 10.4649 7.03177 11.0842 7.03125 11.7188C7.03125 15.2852 11.9414 17.7812 12.1504 17.8867C12.2589 17.941 12.3786 17.9693 12.5 17.9693C12.6214 17.9693 12.7411 17.941 12.8496 17.8867C13.0586 17.7812 17.9688 15.2852 17.9688 11.7188C17.9688 10.8899 17.6395 10.0951 17.0535 9.50904C16.4674 8.92299 15.6726 8.59375 14.8438 8.59375ZM12.5 16.3018C11.1533 15.541 8.59375 13.6895 8.59375 11.7188C8.59375 11.3043 8.75837 10.9069 9.0514 10.6139C9.34442 10.3209 9.74185 10.1562 10.1562 10.1562C10.5707 10.1562 10.9681 10.3209 11.2611 10.6139C11.5541 10.9069 11.7188 11.3043 11.7188 11.7188C11.7188 11.926 11.8011 12.1247 11.9476 12.2712C12.0941 12.4177 12.2928 12.5 12.5 12.5C12.7072 12.5 12.9059 12.4177 13.0524 12.2712C13.1989 12.1247 13.2812 11.926 13.2812 11.7188C13.2812 11.3043 13.4459 10.9069 13.7389 10.6139C14.0319 10.3209 14.4293 10.1562 14.8438 10.1562C15.2582 10.1562 15.6556 10.3209 15.9486 10.6139C16.2416 10.9069 16.4062 11.3043 16.4062 11.7188C16.4062 13.6904 13.8467 15.542 12.5 16.3018Z" fill="#515151"/>
</svg>
